# xmcd
#
# Track frame offsets: 
#        150
#        11780
#        25684
#        36732
#        58464
#        69990
#        89225
#        99223
#        114033
#        129172
#        144828
#        155137
#        164417
#        175002
#        184369
#        196594
#        213626
#        223534
#
# Disc length: 3062 seconds
#
# Revision: 1
# Processed by: cddbd v1.5.2PL0 Copyright (c) Steve Scherf et al.
# Submitted via: ExactAudioCopy v0.95b4
#
DISCID=010bf412
DTITLE=Jeffrey Foskett - Tributes and Rarities
DYEAR=2003
DGENRE=Pop/Rock
TTITLE0=I Live For The Sun
TTITLE1=You Wouldn't Listen
TTITLE2=New York's A Lonely Town
TTITLE3=Telephone Line
TTITLE4=Route 66
TTITLE5=FISH!
TTITLE6=E. Xkate
TTITLE7=Honolulu City Lights
TTITLE8=Never My Love
TTITLE9=Thru My Window
TTITLE10=Catch A Wave
TTITLE11=Summer Love (Extended Version)
TTITLE12=I'd Like To Teach The World To Sing
TTITLE13=Sunshine All The Time
TTITLE14=Laughter In The Rain
TTITLE15=Oh Come, All Ye Faithfull
TTITLE16=Little Saint Nick
TTITLE17=The Beach Boys, An American Family (Theme)
EXTD=
EXTT0=
EXTT1=
EXTT2=
EXTT3=
EXTT4=
EXTT5=
EXTT6=
EXTT7=
EXTT8=
EXTT9=
EXTT10=
EXTT11=
EXTT12=
EXTT13=
EXTT14=
EXTT15=
EXTT16=
EXTT17=
PLAYORDER=
